# xmcd
#
# Track frame offsets:
#  180
#  10497
#  34520
#  52671
#  59022
#  77127
#  91379
#  106077
#  121326
#  140321
#
# Disc length: 2064 seconds
#
# Revision: 1
# Processed by: cddbd v1.5.1PL2 Copyright (c) Steve Scherf et al.
# Submitted via: Collectorz.com_Music_Collector 6.11
#
DISCID=77080e0a
DTITLE=Tennessee Gentlemen - Carolyn's Dream
DYEAR=1999
DGENRE=Bluegrass
TTITLE0=Carolyn's Dream
TTITLE1=Satan's Jewelled Crown
TTITLE2=You Gave Me a Mountain
TTITLE3=Home Grown
TTITLE4=Beulah Land
TTITLE5=Carmen
TTITLE6=Send Me the Pillow
TTITLE7=Pretty Polly
TTITLE8=One Small Miracle
TTITLE9=Raining in My Heart
EXTD=
EXTT0=
EXTT1=
EXTT2=
EXTT3=
EXTT4=
EXTT5=
EXTT6=
EXTT7=
EXTT8=
EXTT9=
PLAYORDER=
